<?xml version="1.0" encoding="UTF-8" standalone="no"?>
<!DOCTYPE svg PUBLIC "-//W3C//DTD SVG 1.1//EN" "http://www.w3.org/Graphics/SVG/1.1/DTD/svg11.dtd">
<svg width="100%" height="100%" viewBox="0 0 840 253" version="1.1" xmlns="http://www.w3.org/2000/svg" xmlns:xlink="http://www.w3.org/1999/xlink" xml:space="preserve" xmlns:serif="http://www.serif.com/" style="fill-rule:evenodd;clip-rule:evenodd;stroke-linejoin:round;stroke-miterlimit:2;">
    <g transform="matrix(0.997625,0,0,0.424497,-1.031,-169.84)">
        <g>
            <g transform="matrix(1.00238,0,0,2.35573,0,0)">
                <path d="M450.648,216.031C456.044,216.031 460.937,216.771 465.334,218.252C469.725,219.73 473.469,221.841 476.554,224.58C479.646,227.321 482.039,230.586 483.737,234.37C485.435,238.157 486.282,242.354 486.282,246.968C486.282,256.799 483.214,264.283 477.08,269.418C470.946,274.552 461.832,277.117 449.735,277.117L396.221,277.117L396.221,310.53L373.247,310.53L373.247,216.031L450.648,216.031ZM448.167,259.104C453.041,259.104 456.825,258.006 459.526,255.809C462.221,253.609 463.569,250.619 463.569,246.838C463.569,242.707 462.245,239.542 459.589,237.342C456.934,235.143 453.086,234.044 448.04,234.044L396.221,234.044L396.221,259.104L448.167,259.104Z" style="fill:white;fill-rule:nonzero;"/>
            </g>
            <g transform="matrix(1.00238,0,0,2.35573,0,0)">
                <path d="M592.398,310.53L569.167,277.117L525.7,277.117L525.7,310.53L502.725,310.53L502.725,216.031L580.129,216.031C585.523,216.031 590.419,216.771 594.815,218.252C599.207,219.73 602.95,221.841 606.04,224.582C609.127,227.323 611.52,230.589 613.218,234.373C614.917,238.159 615.763,242.359 615.763,246.971C615.763,262.031 608.586,271.516 594.226,275.433L618.244,310.53L592.398,310.53ZM577.648,259.104C582.61,259.104 586.416,257.963 589.071,255.676C591.724,253.389 593.051,250.269 593.051,246.31C593.051,242.617 591.704,239.65 589.004,237.406C586.306,235.166 582.48,234.044 577.518,234.044L525.7,234.044L525.7,259.104L577.648,259.104Z" style="fill:white;fill-rule:nonzero;"/>
            </g>
            <g transform="matrix(1.00238,0,0,2.35573,0,0)">
                <rect x="638.085" y="245.694" width="22.972" height="64.835" style="fill:white;"/>
            </g>
            <g transform="matrix(1.00238,0,0,2.35573,0,0)">
                <path d="M120.714,310.53L120.714,216.031L223.178,216.031L223.178,234.044L143.689,234.044L143.689,253.622L198.901,253.622L198.901,271.636L143.689,271.636L143.689,292.517L226.835,292.517L226.835,310.53L120.714,310.53Z" style="fill:white;fill-rule:nonzero;"/>
            </g>
            <g transform="matrix(1.00238,0,0,2.35573,0,0)">
                <path d="M338.131,242.658C331.429,239.002 324.687,236.327 317.897,234.63C311.11,232.935 304.018,232.086 296.623,232.086C286.703,232.086 279.239,232.98 274.237,234.759C269.233,236.545 266.731,238.959 266.731,242.005C266.731,245.226 269.472,247.488 274.956,248.793C277.217,249.312 279.652,249.706 282.264,249.969C284.874,250.228 287.682,250.425 290.683,250.555C293.686,250.685 296.862,250.815 300.21,250.947C303.561,251.074 307.066,251.318 310.72,251.663C318.115,252.361 324.554,253.36 330.038,254.664C335.52,255.969 340.089,257.731 343.743,259.952C347.399,262.17 350.116,264.935 351.902,268.241C353.684,271.55 354.576,275.509 354.576,280.118C354.576,290.389 349.898,298.394 340.546,304.135C331.19,309.877 317.462,312.75 299.364,312.75C287.527,312.75 276.607,311.358 266.601,308.574C256.592,305.791 247.065,301.264 238.015,295L250.546,279.598C258.724,284.557 266.86,288.233 274.956,290.625C283.046,293.021 291.531,294.214 300.407,294.214C309.98,294.214 317.332,293 322.469,290.56C327.6,288.125 330.169,284.947 330.169,281.033C330.169,278.945 329.428,277.334 327.948,276.204C326.47,275.074 324.337,274.204 321.553,273.593C318.767,272.985 315.374,272.593 311.373,272.418C307.369,272.245 302.842,272.028 297.798,271.764C288.573,271.42 280.523,270.656 273.651,269.481C266.774,268.307 261.053,266.61 256.484,264.392C251.915,262.17 248.501,259.387 246.237,256.036C243.974,252.687 242.847,248.663 242.847,243.964C242.847,234.654 247.325,227.278 256.288,221.841C265.251,216.401 278.347,213.68 295.578,213.68C318.637,213.68 337.171,218.293 351.183,227.517L338.131,242.658Z" style="fill:white;fill-rule:nonzero;"/>
            </g>
            <g transform="matrix(1.00238,0,0,2.35573,0,0)">
                <path d="M678.026,216.031L678.026,234.044L723.057,234.044L723.057,310.53L746.029,310.53L746.029,234.044L791.063,234.044L791.063,216.031L678.026,216.031Z" style="fill:white;fill-rule:nonzero;"/>
            </g>
            <g transform="matrix(1.00238,0,0,2.35573,0,0)">
                <path d="M638.189,216.129L661.161,216.129L661.161,234.142L644.981,234.142C641.229,234.142 638.189,231.101 638.189,227.35L638.189,216.129Z" style="fill:white;fill-rule:nonzero;"/>
            </g>
            <g transform="matrix(1.00238,0,0,2.35573,0,0)">
                <path d="M237.316,377.786L237.314,377.778C150.805,371.667 87.378,342.768 50.999,297.203C87.848,337.373 154.592,355.004 231.671,355.217L231.675,355.221C314.874,355.451 423.661,314.02 502.725,341.034C399.434,371.913 310.186,382.93 237.316,377.786Z" style="fill:white;fill-rule:nonzero;"/>
            </g>
            <g transform="matrix(1.00238,0,0,2.35573,0,0)">
                <path d="M538.142,332.371L538.142,336.404L529.939,336.404L529.939,341.883L537.418,341.883L537.418,345.917L529.939,345.917L529.939,352.466L538.383,352.466L538.383,356.499L525.837,356.499L525.837,332.371L538.142,332.371Z" style="fill:white;fill-rule:nonzero;"/>
            </g>
            <g transform="matrix(1.00238,0,0,2.35573,0,0)">
                <path d="M559.652,332.371L559.652,356.499L555.344,356.499L551.104,344.951L549.898,340.85L549.76,340.85L550.002,345.089L550.002,356.499L545.934,356.499L545.934,332.371L550.243,332.371L554.447,343.78L555.723,347.985L555.861,347.985L555.587,343.745L555.587,332.371L559.652,332.371Z" style="fill:white;fill-rule:nonzero;"/>
            </g>
            <g transform="matrix(1.00238,0,0,2.35573,0,0)">
                <path d="M580.474,350.088C580.474,353.776 577.545,356.844 573.787,356.844L573.235,356.844C569.513,356.844 566.479,353.741 566.479,350.054L566.479,338.783C566.479,335.094 569.513,332.026 573.235,332.026L573.787,332.026C577.545,332.026 580.474,334.921 580.474,339.162L576.339,339.162C576.339,337.3 575.097,336.094 573.649,336.094L573.305,336.094C571.823,336.094 570.617,337.197 570.617,338.61L570.617,350.261C570.617,351.673 571.823,352.811 573.305,352.811L573.649,352.811C575.097,352.811 576.339,351.707 576.339,350.294L576.339,347.468L573.477,347.468L573.477,343.471L580.474,343.471L580.474,350.088Z" style="fill:white;fill-rule:nonzero;"/>
            </g>
            <g transform="matrix(1.00238,0,0,2.35573,0,0)">
                <path d="M587.371,332.371L600.917,332.371L600.917,336.232L596.264,336.232L596.264,352.638L600.917,352.638L600.917,356.499L587.371,356.499L587.371,352.638L592.058,352.638L592.058,336.232L587.371,336.232L587.371,332.371Z" style="fill:white;fill-rule:nonzero;"/>
            </g>
            <g transform="matrix(1.00238,0,0,2.35573,0,0)">
                <path d="M621.704,332.371L621.704,356.499L617.396,356.499L613.156,344.951L611.95,340.85L611.812,340.85L612.054,345.089L612.054,356.499L607.986,356.499L607.986,332.371L612.296,332.371L616.5,343.78L617.775,347.985L617.913,347.985L617.639,343.745L617.639,332.371L621.704,332.371Z" style="fill:white;fill-rule:nonzero;"/>
            </g>
            <g transform="matrix(1.00238,0,0,2.35573,0,0)">
                <path d="M641.563,332.371L641.563,336.404L633.359,336.404L633.359,341.883L640.839,341.883L640.839,345.917L633.359,345.917L633.359,352.466L641.804,352.466L641.804,356.499L629.258,356.499L629.258,332.371L641.563,332.371Z" style="fill:white;fill-rule:nonzero;"/>
            </g>
            <g transform="matrix(1.00238,0,0,2.35573,0,0)">
                <path d="M662.245,332.371L662.245,336.404L654.043,336.404L654.043,341.883L661.521,341.883L661.521,345.917L654.043,345.917L654.043,352.466L662.486,352.466L662.486,356.499L649.94,356.499L649.94,332.371L662.245,332.371Z" style="fill:white;fill-rule:nonzero;"/>
            </g>
            <g transform="matrix(1.00238,0,0,2.35573,0,0)">
                <path d="M676.07,348.296L674.003,348.296L674.003,356.498L669.866,356.498L669.866,332.371L677.002,332.371C680.242,332.371 682.827,334.956 682.827,338.197L682.827,342.505C682.827,344.504 681.757,346.4 680.136,347.434L683.929,356.498L679.38,356.498L676.07,348.296ZM678.621,338.025C678.621,337.128 677.862,336.404 676.932,336.404L674.003,336.404L674.003,344.263L676.932,344.263C677.862,344.263 678.621,343.539 678.621,342.643L678.621,338.025Z" style="fill:white;fill-rule:nonzero;"/>
            </g>
            <g transform="matrix(1.00238,0,0,2.35573,0,0)">
                <path d="M690.792,332.371L704.338,332.371L704.338,336.232L699.685,336.232L699.685,352.638L704.338,352.638L704.338,356.499L690.792,356.499L690.792,352.638L695.479,352.638L695.479,336.232L690.792,336.232L690.792,332.371Z" style="fill:white;fill-rule:nonzero;"/>
            </g>
            <g transform="matrix(1.00238,0,0,2.35573,0,0)">
                <path d="M725.124,332.371L725.124,356.499L720.816,356.499L716.576,344.951L715.369,340.85L715.232,340.85L715.474,345.089L715.474,356.499L711.405,356.499L711.405,332.371L715.714,332.371L719.919,343.78L721.194,347.985L721.332,347.985L721.058,343.745L721.058,332.371L725.124,332.371Z" style="fill:white;fill-rule:nonzero;"/>
            </g>
            <g transform="matrix(1.00238,0,0,2.35573,0,0)">
                <path d="M745.946,350.088C745.946,353.776 743.016,356.844 739.259,356.844L738.708,356.844C734.985,356.844 731.952,353.741 731.952,350.054L731.952,338.783C731.952,335.094 734.985,332.026 738.708,332.026L739.259,332.026C743.016,332.026 745.946,334.921 745.946,339.162L741.81,339.162C741.81,337.3 740.569,336.094 739.122,336.094L738.777,336.094C737.295,336.094 736.089,337.197 736.089,338.61L736.089,350.261C736.089,351.673 737.295,352.811 738.777,352.811L739.122,352.811C740.569,352.811 741.81,351.707 741.81,350.294L741.81,347.468L738.95,347.468L738.95,343.471L745.946,343.471L745.946,350.088Z" style="fill:white;fill-rule:nonzero;"/>
            </g>
        </g>
    </g>
</svg>
